<?xml version="1.0" encoding="windows-1252"?>
<!-- Generator: Adobe Illustrator 16.0.0, SVG Export Plug-In . SVG Version: 6.00 Build 0)  -->
<!DOCTYPE svg PUBLIC "-//W3C//DTD SVG 1.1//EN" "http://www.w3.org/Graphics/SVG/1.1/DTD/svg11.dtd">
<svg version="1.1" id="Capa_1" xmlns="http://www.w3.org/2000/svg" xmlns:xlink="http://www.w3.org/1999/xlink" x="0px" y="0px" width="491.494px" height="491.494px" viewBox="0 0 491.494 491.494" style="enable-background:new 0 0 491.494 491.494;" xml:space="preserve">
<g>
	<g>
		<path d="M39.302,138.132c3.291,0.714,6.346,0.662,15.728-6.54c4.168-3.204,10.325-8.59,16.01-16.117l2.491-3.301    C94.832,83.842,144.7,17.512,216.727,21.121c59.398,4.331,101.508,49.187,121.757,129.725c0.691,2.738,1.107,4.413,1.571,5.71    c3.097,13.167,8.288,29.575,15.771,34.98c1.848,1.34,3.999,1.98,6.127,1.98c3.246,0,6.461-1.505,8.509-4.347    c3.274-4.533,2.404-10.805-1.891-14.28c-2.069-2.68-5.959-13.888-8.276-23.913c-0.136-0.597-0.33-1.173-0.566-1.732    c-0.195-0.686-0.568-2.18-0.908-3.517c-3.209-12.77-11.735-46.678-32.417-78.567c-26.712-41.183-63.142-63.718-108.283-66.97    c-0.07-0.011-0.14-0.011-0.221-0.011C134.7-4.07,80.083,68.559,56.768,99.568l-2.451,3.257    c-6.383,8.44-13.925,13.694-16.524,15.215c-0.875,0.351-1.727,0.821-2.518,1.417c-3.263,2.472-4.857,6.689-3.979,10.685    C32.175,134.132,35.301,137.257,39.302,138.132z"/>
		<path d="M43.97,245.815c34.618-9.417,66.601-28.597,68-29.437c45.162-27.656,86.126-71.235,86.469-71.646    c16.91-19.369,41.931-37.94,61.447-31.966c11.491,3.519,19.46,9.777,23.681,18.605c5.056,10.563,4.663,24.853-1.075,39.198    c-0.605,1.515-1.295,3.05-2.046,4.599c7.374,0.396,14.57,1.464,21.534,3.136c7.892-19.76,8.087-40.166,0.501-55.993    c-6.753-14.137-19.363-24.372-36.447-29.605c-25.08-7.675-55.478,6.251-83.33,38.163c-0.354,0.392-40,42.09-81.631,67.583    c-0.305,0.184-30.782,18.461-62.61,27.139c-5.589,1.515-8.885,7.286-7.364,12.866C32.613,244.047,38.377,247.349,43.97,245.815z"/>
		<path d="M153.876,295.054c0-4.156,0.213-8.263,0.627-12.312c-29.438,17.887-67.814,39.939-97.787,52.746    c-5.327,2.28-7.796,8.434-5.522,13.768c1.705,3.986,5.576,6.369,9.65,6.369c1.377,0,2.777-0.275,4.122-0.842    c27.386-11.718,61.274-30.707,89.523-47.556C154.084,303.224,153.876,299.162,153.876,295.054z"/>
		<path d="M228.386,44.899c-37.917,3.934-70.342,27.636-95.327,55.151c-4.757,5.246-9.028,10.879-13.631,16.25    c-6.023,7.042-12.607,13.623-19.485,19.829c-7.069,6.386-12.791,10.948-21.127,15.746c-8.847,5.068-17.865,10.201-27.027,14.666    c-3.153,1.54-5.865,2.534-9.41,3.601c-5.467,1.646-8.863,7.289-7.321,12.902c1.483,5.411,7.424,8.975,12.902,7.332    c10.722-3.23,20.441-8.752,30.117-14.252c8.183-4.646,16.301-8.833,23.813-14.55c14.65-11.135,27.252-24.137,38.844-38.373    c4.697-5.765,9.713-11.251,14.96-16.525c2.861-2.876,5.818-5.649,8.844-8.366c1.573-1.41,3.172-2.782,4.793-4.149    c0.818-0.686,1.647-1.367,2.485-2.045c0.213-0.178,1.843-1.461,2.255-1.793c7.305-5.595,15.087-10.568,23.275-14.771    c7.734-3.979,15.49-6.756,24.902-8.721c3.123-0.648,3.803-0.718,6.138-0.956c5.683-0.586,10.487-4.328,10.487-10.484    C238.873,50.111,234.08,44.309,228.386,44.899z"/>
		<path d="M51.445,300.867c13.922-4.779,63.021-22.953,114.054-57.316c14.353-30.099,40.872-53.322,73.158-63.269    c6.34-7.227,12.397-14.798,18.062-22.738c3.358-4.713,2.269-11.257-2.449-14.628c-4.716-3.363-11.271-2.267-14.635,2.448    C177.851,231.979,66.355,273.567,44.628,281.041c-0.464,0.15-0.751,0.248-0.851,0.281c-5.417,2.062-8.145,8.114-6.092,13.528    c1.588,4.192,5.576,6.765,9.814,6.765c1.184,0,2.396-0.195,3.574-0.617L51.445,300.867z"/>
		<path d="M170.772,356.402c-3.599-6.029-6.684-12.398-9.196-19.049c-3.44,2.251-7.009,4.598-10.725,7.045    c-26.179,17.262-55.862,36.825-68.769,40.299c-5.592,1.514-8.906,7.262-7.402,12.854c1.261,4.689,5.494,7.764,10.125,7.764    c0.902,0,1.817-0.113,2.725-0.355c16.185-4.367,44.692-23.156,74.873-43.045C165.13,360.115,167.935,358.268,170.772,356.402z"/>
		<path d="M310.556,414.672c-2.114-0.764-4.56-1.867-7.245-3.221c-9.571,2.418-19.445,3.666-29.371,3.666    c-2.133,0-4.251-0.059-6.356-0.168c13.534,8.344,26.191,15.965,35.858,19.467c5.435,1.967,11.453-0.854,13.42-6.311    C318.829,422.646,316.013,416.639,310.556,414.672z"/>
		<path d="M190.69,381.482c-14.76,9.119-34.594,23.168-60.247,41.904c-5.6,4.078-10.431,7.605-13.783,9.979    c-4.725,3.35-5.854,9.887-2.518,14.619c2.054,2.891,5.29,4.438,8.577,4.438c2.091,0,4.204-0.627,6.041-1.918    c3.484-2.465,8.376-6.045,14.047-10.168c14.189-10.367,46.716-34.113,65.317-44.916    C201.887,391.313,196.05,386.646,190.69,381.482z"/>
		<path d="M275.142,466.809c-5.896-3.846-11.304-7.715-16.556-11.441c-17.191-12.291-32.06-22.904-48.355-20.066    c-18.35,3.17-47.568,32.557-53.244,38.402c-4.028,4.166-3.917,10.807,0.243,14.836c2.036,1.961,4.666,2.955,7.286,2.955    c2.744,0,5.483-1.064,7.537-3.193c14.047-14.512,34.003-30.99,41.745-32.33c7.65-1.318,19.229,6.916,32.611,16.469    c5.155,3.684,11.001,7.844,17.269,11.939c4.847,3.166,11.352,1.799,14.517-3.053C281.355,476.469,279.982,469.98,275.142,466.809z    "/>
		<path d="M454.778,451.717l-94.13-94.131c14.188-17.851,22.678-40.424,22.678-64.946c0-57.654-46.905-104.559-104.559-104.559    S174.208,234.986,174.208,292.64c0,57.653,46.905,104.558,104.559,104.558c18.336,0,35.58-4.75,50.578-13.074l96.514,96.514    c3.993,3.992,9.226,5.988,14.459,5.988c5.232,0,10.467-1.996,14.459-5.988C462.763,472.65,462.763,459.703,454.778,451.717z     M227.075,346.916c-0.292,0.918-0.792,1.377-1.5,1.377c-0.158,0-0.303-0.029-0.44-0.076c-0.283-0.272-0.576-0.536-0.855-0.814    c-0.071-0.137-0.142-0.275-0.198-0.443c-0.297-0.891-0.445-2.521-0.445-4.896c0-2.392,0.148-4.038,0.445-4.938    c0.296-0.898,0.794-1.349,1.493-1.349c0.698,0,1.196,0.466,1.493,1.4c0.296,0.933,0.444,2.562,0.444,4.887    C227.513,344.381,227.367,345.998,227.075,346.916z M345.676,331.262c-2.321,0.104-4.072,0.961-5.237,2.591    c-1.184,1.655-1.798,4.224-1.854,7.677c-1.501,1.834-3.088,3.592-4.749,5.279v-15.268h-5.11l-7.205,5.871l2.941,3.619l2.383-1.968    c0.526-0.469,0.967-0.918,1.321-1.349c-0.058,1.119-0.086,2.354-0.086,3.703v10.691c-13.392,11.123-30.583,17.822-49.312,17.822    c-18.805,0-36.057-6.758-49.473-17.961c0.786-0.424,1.454-1,1.992-1.747c1.244-1.728,1.866-4.447,1.866-8.16    c0-3.589-0.638-6.29-1.916-8.103c-1.277-1.813-3.165-2.721-5.663-2.721c-2.565,0-4.469,0.871-5.713,2.612    c-1.048,1.467-1.648,3.647-1.814,6.526c-0.971-1.232-1.909-2.492-2.806-3.783c-0.307-1.021-0.713-1.904-1.229-2.637    c-0.415-0.59-0.902-1.072-1.447-1.471c-5.081-8.41-8.606-17.857-10.172-27.947c0.094,0.156,0.185,0.315,0.287,0.461    c1.272,1.804,3.163,2.705,5.67,2.705c2.564,0,4.469-0.863,5.713-2.59c1.244-1.728,1.866-4.447,1.866-8.162    c0-3.588-0.639-6.289-1.916-8.103s-3.165-2.72-5.663-2.72c-2.565,0-4.469,0.871-5.713,2.611c-0.46,0.645-0.833,1.426-1.123,2.34    c0.2-10.092,2.322-19.724,6.051-28.521c0.256,0.021,0.515,0.037,0.785,0.037c2.564,0,4.469-0.864,5.713-2.591    c1.244-1.727,1.866-4.447,1.866-8.16c0-1.377-0.096-2.62-0.284-3.734c14.01-19.804,37.074-32.771,63.123-32.771    c25.082,0,47.402,12.017,61.532,30.587l-1.556,1.268l2.942,3.617l1.327-1.096c0.799,1.191,1.558,2.41,2.29,3.648v8.944h4.553    c3.988,9.315,6.205,19.565,6.205,30.324C356.061,306.703,352.268,319.89,345.676,331.262z M206.413,296.957    c0-2.392,0.148-4.037,0.445-4.938c0.296-0.898,0.794-1.35,1.493-1.35c0.698,0,1.196,0.467,1.493,1.398    c0.296,0.934,0.445,2.562,0.445,4.889c0,2.315-0.146,3.933-0.438,4.853c-0.292,0.918-0.792,1.378-1.5,1.378    c-0.699,0-1.197-0.445-1.493-1.336C206.56,300.963,206.413,299.332,206.413,296.957z"/>
		<path d="M223.494,248.852c0.526-0.469,0.967-0.918,1.321-1.35c-0.057,1.121-0.086,2.354-0.086,3.703v11.11h5.756V241.33h-5.11    l-7.206,5.872l2.943,3.617L223.494,248.852z"/>
		<path d="M242.801,241.029c-2.565,0-4.469,0.871-5.713,2.613c-1.245,1.741-1.867,4.479-1.867,8.21c0,3.561,0.637,6.242,1.91,8.045    c1.272,1.805,3.162,2.706,5.67,2.706c2.565,0,4.469-0.864,5.712-2.591c1.243-1.727,1.865-4.447,1.865-8.16    c0-3.588-0.639-6.289-1.916-8.103C247.186,241.935,245.297,241.029,242.801,241.029z M244.301,256.703    c-0.292,0.92-0.792,1.379-1.5,1.379c-0.699,0-1.196-0.445-1.493-1.336c-0.297-0.89-0.445-2.521-0.445-4.895    c0-2.393,0.148-4.038,0.445-4.938c0.297-0.9,0.794-1.351,1.493-1.351c0.698,0,1.196,0.468,1.493,1.399    c0.297,0.933,0.445,2.562,0.445,4.888C244.738,254.168,244.592,255.785,244.301,256.703z"/>
		<path d="M257.944,248.852c0.526-0.469,0.967-0.918,1.32-1.35c-0.059,1.121-0.086,2.354-0.086,3.703v11.11h5.756V241.33h-5.11    l-7.206,5.872l2.942,3.617L257.944,248.852z"/>
		<path d="M277.25,241.029c-2.564,0-4.469,0.871-5.712,2.613c-1.244,1.741-1.866,4.479-1.866,8.21c0,3.561,0.638,6.242,1.909,8.045    c1.273,1.805,3.163,2.706,5.67,2.706c2.565,0,4.47-0.864,5.713-2.591c1.244-1.727,1.866-4.447,1.866-8.16    c0-3.588-0.639-6.289-1.917-8.103C281.635,241.935,279.748,241.029,277.25,241.029z M278.75,256.703    c-0.292,0.92-0.792,1.379-1.5,1.379c-0.697,0-1.195-0.445-1.493-1.336c-0.297-0.89-0.444-2.521-0.444-4.895    c0-2.393,0.147-4.038,0.444-4.938c0.298-0.9,0.795-1.351,1.493-1.351c0.699,0,1.196,0.468,1.493,1.399    c0.297,0.933,0.445,2.562,0.445,4.888C279.189,254.168,279.042,255.785,278.75,256.703z"/>
		<path d="M294.476,241.029c-2.564,0-4.47,0.871-5.713,2.613c-1.244,1.741-1.866,4.479-1.866,8.21c0,3.561,0.637,6.242,1.91,8.045    c1.271,1.805,3.163,2.706,5.669,2.706c2.564,0,4.469-0.864,5.713-2.591s1.866-4.447,1.866-8.16c0-3.588-0.64-6.289-1.917-8.103    C298.861,241.936,296.974,241.029,294.476,241.029z M295.976,256.703c-0.292,0.92-0.792,1.379-1.5,1.379    c-0.699,0-1.196-0.445-1.493-1.336c-0.296-0.89-0.444-2.521-0.444-4.895c0-2.393,0.148-4.038,0.444-4.938    c0.297-0.9,0.794-1.351,1.493-1.351c0.697,0,1.196,0.468,1.493,1.399c0.297,0.933,0.444,2.562,0.444,4.888    C296.414,254.168,296.267,255.785,295.976,256.703z"/>
		<path d="M309.62,248.852c0.526-0.469,0.967-0.918,1.321-1.35c-0.058,1.121-0.086,2.354-0.086,3.703v11.11h5.756V241.33h-5.11    l-7.207,5.872l2.943,3.617L309.62,248.852z"/>
		<path d="M321.519,247.201l2.941,3.617l2.383-1.967c0.526-0.469,0.966-0.918,1.321-1.35c-0.058,1.121-0.086,2.354-0.086,3.703    v11.11h5.756V241.33h-5.109L321.519,247.201z"/>
		<path d="M225.575,286.135c-2.565,0-4.469,0.871-5.713,2.611c-1.244,1.742-1.866,4.479-1.866,8.211    c0,3.561,0.636,6.242,1.909,8.045c1.273,1.805,3.163,2.707,5.67,2.707c2.565,0,4.469-0.865,5.713-2.592s1.866-4.447,1.866-8.16    c0-3.588-0.638-6.289-1.916-8.104C229.959,287.039,228.073,286.135,225.575,286.135z M227.075,301.811    c-0.292,0.918-0.792,1.378-1.5,1.378c-0.699,0-1.196-0.444-1.493-1.336c-0.297-0.89-0.445-2.521-0.445-4.896    c0-2.392,0.148-4.037,0.445-4.938c0.296-0.898,0.794-1.35,1.493-1.35c0.698,0,1.196,0.467,1.493,1.398    c0.296,0.934,0.444,2.562,0.444,4.889C227.513,299.273,227.367,300.891,227.075,301.811z"/>
		<path d="M241.954,307.422h5.756v-20.985h-5.11l-7.206,5.871l2.942,3.616l2.383-1.967c0.526-0.467,0.966-0.918,1.32-1.349    c-0.058,1.12-0.086,2.354-0.086,3.703L241.954,307.422L241.954,307.422z"/>
		<path d="M260.025,286.135c-2.564,0-4.469,0.871-5.713,2.611c-1.244,1.742-1.866,4.479-1.866,8.211    c0,3.561,0.636,6.242,1.909,8.045c1.272,1.805,3.163,2.707,5.67,2.707c2.564,0,4.469-0.865,5.713-2.592    c1.245-1.727,1.866-4.447,1.866-8.16c0-3.588-0.64-6.289-1.916-8.104C264.411,287.041,262.523,286.135,260.025,286.135z     M261.526,301.811c-0.292,0.918-0.792,1.378-1.5,1.378c-0.699,0-1.196-0.444-1.493-1.336c-0.296-0.89-0.444-2.521-0.444-4.896    c0-2.392,0.148-4.037,0.444-4.938c0.297-0.898,0.794-1.35,1.493-1.35c0.698,0,1.196,0.467,1.493,1.398    c0.296,0.934,0.443,2.562,0.443,4.889C261.962,299.273,261.817,300.891,261.526,301.811z"/>
		<path d="M269.844,292.308l2.941,3.616l2.383-1.967c0.526-0.467,0.967-0.918,1.32-1.349c-0.057,1.12-0.086,2.354-0.086,3.703v11.11    h5.756v-20.985h-5.11L269.844,292.308z"/>
		<path d="M294.476,286.135c-2.564,0-4.47,0.871-5.713,2.611c-1.244,1.742-1.866,4.479-1.866,8.211c0,3.561,0.637,6.242,1.91,8.045    c1.271,1.805,3.163,2.707,5.669,2.707c2.564,0,4.469-0.865,5.713-2.592s1.866-4.447,1.866-8.16c0-3.588-0.64-6.289-1.917-8.104    C298.861,287.041,296.974,286.135,294.476,286.135z M295.976,301.811c-0.292,0.918-0.792,1.378-1.5,1.378    c-0.699,0-1.196-0.444-1.493-1.336c-0.296-0.89-0.444-2.521-0.444-4.896c0-2.392,0.148-4.037,0.444-4.938    c0.297-0.898,0.794-1.35,1.493-1.35c0.697,0,1.196,0.467,1.493,1.398c0.297,0.934,0.444,2.562,0.444,4.889    C296.414,299.273,296.267,300.891,295.976,301.811z"/>
		<path d="M311.701,286.135c-2.565,0-4.469,0.871-5.713,2.611c-1.244,1.742-1.866,4.479-1.866,8.211    c0,3.561,0.636,6.242,1.909,8.045c1.271,1.805,3.163,2.707,5.67,2.707c2.563,0,4.469-0.865,5.713-2.592s1.866-4.447,1.866-8.16    c0-3.588-0.64-6.289-1.916-8.104C316.086,287.039,314.199,286.135,311.701,286.135z M313.201,301.811    c-0.292,0.918-0.792,1.378-1.5,1.378c-0.699,0-1.197-0.444-1.493-1.336c-0.297-0.89-0.445-2.521-0.445-4.896    c0-2.392,0.148-4.037,0.445-4.938c0.296-0.898,0.794-1.35,1.493-1.35c0.698,0,1.196,0.467,1.493,1.398    c0.296,0.934,0.443,2.562,0.443,4.889C313.638,299.273,313.493,300.891,313.201,301.811z"/>
		<path d="M321.519,292.308l2.941,3.616l2.383-1.967c0.526-0.467,0.966-0.918,1.321-1.349c-0.058,1.12-0.086,2.354-0.086,3.703    v11.11h5.756v-20.985h-5.109L321.519,292.308z"/>
		<path d="M346.151,286.135c-2.565,0-4.47,0.871-5.713,2.611c-1.245,1.742-1.866,4.479-1.866,8.211c0,3.561,0.637,6.242,1.909,8.045    c1.272,1.805,3.162,2.707,5.67,2.707c2.563,0,4.469-0.865,5.713-2.592s1.866-4.447,1.866-8.16c0-3.588-0.639-6.289-1.916-8.104    C350.537,287.041,348.649,286.135,346.151,286.135z M347.651,301.811c-0.292,0.918-0.792,1.378-1.5,1.378    c-0.699,0-1.196-0.444-1.493-1.336c-0.296-0.89-0.444-2.521-0.444-4.896c0-2.392,0.148-4.037,0.444-4.938    c0.297-0.898,0.794-1.35,1.493-1.35c0.697,0,1.195,0.467,1.493,1.398c0.296,0.934,0.443,2.562,0.443,4.889    C348.088,299.273,347.943,300.891,347.651,301.811z"/>
		<path d="M242.801,331.242c-2.565,0-4.469,0.871-5.713,2.611c-1.245,1.742-1.867,4.479-1.867,8.211c0,3.561,0.637,6.242,1.91,8.046    c1.273,1.804,3.162,2.706,5.67,2.706c2.565,0,4.469-0.863,5.712-2.591c1.243-1.728,1.865-4.447,1.865-8.16    c0-3.589-0.639-6.29-1.916-8.103C247.186,332.147,245.297,331.242,242.801,331.242z M244.301,346.916    c-0.292,0.918-0.792,1.377-1.5,1.377c-0.699,0-1.196-0.444-1.493-1.334c-0.297-0.891-0.445-2.521-0.445-4.896    c0-2.392,0.148-4.038,0.445-4.938c0.297-0.898,0.794-1.349,1.493-1.349c0.698,0,1.196,0.466,1.493,1.4    c0.297,0.933,0.445,2.562,0.445,4.887C244.738,344.381,244.592,345.998,244.301,346.916z"/>
		<path d="M252.619,337.414l2.942,3.617l2.383-1.967c0.526-0.469,0.967-0.918,1.32-1.35c-0.059,1.121-0.086,2.354-0.086,3.703v11.11    h5.756v-20.985h-5.11L252.619,337.414z"/>
		<path d="M269.844,337.414l2.941,3.617l2.383-1.967c0.526-0.469,0.967-0.918,1.32-1.35c-0.057,1.121-0.086,2.354-0.086,3.703v11.11    h5.756v-20.985h-5.11L269.844,337.414z"/>
		<path d="M287.069,337.414l2.943,3.617l2.383-1.967c0.525-0.469,0.966-0.918,1.32-1.35c-0.058,1.121-0.087,2.354-0.087,3.703v11.11    h5.757v-20.985h-5.11L287.069,337.414z"/>
		<path d="M311.701,331.242c-2.565,0-4.469,0.871-5.713,2.611c-1.244,1.742-1.866,4.479-1.866,8.211    c0,3.561,0.636,6.242,1.909,8.046c1.271,1.804,3.163,2.706,5.67,2.706c2.563,0,4.469-0.863,5.713-2.591s1.866-4.447,1.866-8.16    c0-3.589-0.64-6.29-1.916-8.103C316.086,332.147,314.199,331.242,311.701,331.242z M313.201,346.916    c-0.292,0.918-0.792,1.377-1.5,1.377c-0.699,0-1.197-0.444-1.493-1.334c-0.297-0.891-0.445-2.521-0.445-4.896    c0-2.392,0.148-4.038,0.445-4.938c0.296-0.898,0.794-1.349,1.493-1.349c0.698,0,1.196,0.466,1.493,1.4    c0.296,0.933,0.443,2.562,0.443,4.887C313.638,344.381,313.493,345.998,313.201,346.916z"/>
	</g>
</g>
<g>
</g>
<g>
</g>
<g>
</g>
<g>
</g>
<g>
</g>
<g>
</g>
<g>
</g>
<g>
</g>
<g>
</g>
<g>
</g>
<g>
</g>
<g>
</g>
<g>
</g>
<g>
</g>
<g>
</g>
</svg>